<?xml version="1.0" standalone="no"?>
<!DOCTYPE svg PUBLIC "-//W3C//DTD SVG 20010904//EN"
 "http://www.w3.org/TR/2001/REC-SVG-20010904/DTD/svg10.dtd">
<svg version="1.0" xmlns="http://www.w3.org/2000/svg"
 width="500.000000pt" height="500.000000pt" viewBox="0 0 500.000000 500.000000"
 preserveAspectRatio="xMidYMid meet">
<metadata>
Created by potrace 1.14, written by Peter Selinger 2001-2017
</metadata>
<g transform="translate(0.000000,500.000000) scale(0.100000,-0.100000)"
fill="#000000" stroke="none">
<path d="M1170 3562 c-6 -2 -10 -30 -10 -63 l0 -59 104 0 c74 0 105 -4 108
-12 2 -7 4 -138 3 -290 l0 -278 75 0 75 0 -2 290 -2 290 108 0 107 0 1 60 c0
33 -2 60 -6 61 -18 3 -553 3 -561 1z"/>
<path d="M1841 3562 c-8 -3 -11 -104 -11 -353 l0 -350 73 3 72 3 1 169 c1 150
4 171 21 195 26 33 60 46 107 37 61 -12 66 -30 68 -230 l1 -176 74 0 75 0 -4
203 c-3 231 -10 256 -80 302 -76 50 -198 32 -236 -36 -10 -16 -20 -29 -23 -29
-3 0 -5 59 -5 130 1 72 -1 130 -4 131 -18 3 -120 4 -129 1z"/>
<path d="M2617 3388 c-89 -13 -169 -86 -193 -176 -18 -68 -10 -174 16 -225 29
-56 46 -74 100 -106 40 -23 56 -26 135 -26 75 0 97 4 133 23 62 33 128 130 90
133 -111 8 -111 8 -147 -23 -31 -28 -39 -30 -85 -24 -60 7 -94 36 -102 87 l-6
35 168 -1 c93 0 174 1 180 3 18 5 8 116 -16 168 -23 54 -58 88 -117 115 -50
23 -89 27 -156 17z m85 -107 c33 -2 92 -80 74 -98 -8 -8 -205 -7 -213 1 -4 3
1 21 9 39 16 34 68 67 97 62 9 -2 24 -4 33 -4z"/>
<path d="M114 2911 c-2 -2 -4 -278 -4 -613 l0 -608 130 0 129 0 0 189 c-1 104
2 194 5 199 3 5 69 9 148 9 209 1 305 30 399 124 117 117 143 335 58 500 -49
97 -174 179 -294 195 -63 7 -564 12 -571 5z m564 -244 c127 -83 106 -302 -33
-358 -16 -6 -85 -13 -152 -14 -108 -2 -123 -1 -124 14 0 17 0 273 1 349 l0 44
133 -4 c126 -3 136 -5 175 -31z"/>
<path d="M3181 2910 c-4 -3 -7 -278 -7 -612 l0 -608 128 0 128 0 0 148 0 147
34 37 33 37 124 -184 124 -184 148 -1 148 0 -16 28 c-8 15 -39 61 -68 102 -29
41 -102 146 -161 233 l-108 157 59 69 c32 37 106 125 166 194 59 69 107 128
107 130 0 3 -64 5 -142 5 l-143 1 -145 -174 c-80 -96 -148 -174 -152 -175 -4
0 -9 147 -10 327 l-3 327 -118 0 c-66 1 -122 -1 -126 -4z"/>
<path d="M1485 2606 c-79 -20 -138 -53 -194 -109 -86 -86 -133 -209 -133 -349
1 -303 186 -487 476 -473 105 5 129 10 201 44 93 43 172 135 187 215 3 20 6
19 -152 29 l-75 5 -27 -38 c-63 -90 -243 -88 -313 4 -26 34 -51 115 -43 137 5
12 57 14 312 13 l306 -1 1 41 c5 199 -54 341 -177 424 -89 61 -253 86 -369 58z
m225 -206 c42 -30 71 -75 77 -120 l5 -38 -191 0 c-212 0 -204 -3 -176 66 36
84 106 126 198 117 36 -3 70 -13 87 -25z"/>
<path d="M2458 2604 c-135 -32 -235 -121 -263 -234 -5 -22 -3 -26 17 -27 13 0
66 -3 118 -7 l95 -7 18 34 c42 78 201 94 256 25 21 -25 27 -101 9 -115 -19
-16 -84 -31 -163 -38 -38 -4 -77 -8 -85 -10 -8 -3 -30 -7 -48 -10 -106 -18
-208 -84 -236 -155 -20 -50 -23 -150 -7 -208 21 -77 110 -153 196 -169 134
-25 254 6 325 83 22 24 42 44 43 44 2 0 3 -26 3 -57 l-1 -58 121 -3 122 -3 -2
353 c-1 343 -2 354 -23 393 -44 79 -98 124 -189 156 -75 26 -225 33 -306 13z
m267 -550 c1 -152 -108 -235 -255 -194 -67 18 -91 103 -45 158 25 30 87 52
190 68 69 10 76 12 83 18 15 16 27 -5 27 -50z"/>
<path d="M4410 2609 c-122 -21 -233 -101 -258 -188 -27 -89 -1 -215 54 -262
50 -43 144 -82 229 -94 109 -17 201 -46 223 -71 26 -30 28 -47 5 -85 -29 -48
-128 -67 -209 -40 -31 10 -49 25 -69 57 l-27 43 -97 -5 c-53 -3 -107 -7 -121
-8 -20 -1 -24 -6 -22 -26 6 -41 40 -105 78 -144 66 -68 165 -105 297 -111 285
-14 486 149 437 354 -14 61 -54 109 -120 145 -57 31 -74 36 -225 66 -162 32
-211 65 -189 127 17 47 57 68 132 68 76 -1 109 -17 142 -71 l21 -33 92 5 c143
8 139 6 122 60 -29 95 -104 168 -210 200 -62 19 -212 26 -285 13z"/>
</g>
</svg>
